<?xml version="1.0" encoding="iso-8859-1"?>
<!-- Generator: Adobe Illustrator 18.0.0, SVG Export Plug-In . SVG Version: 6.00 Build 0)  -->
<!DOCTYPE svg PUBLIC "-//W3C//DTD SVG 1.1//EN" "http://www.w3.org/Graphics/SVG/1.1/DTD/svg11.dtd">
<svg version="1.1" id="Capa_1" xmlns="http://www.w3.org/2000/svg" xmlns:xlink="http://www.w3.org/1999/xlink" x="0px" y="0px"
	 viewBox="0 0 59.882 59.882" style="enable-background:new 0 0 59.882 59.882;" xml:space="preserve">
<g>
	<path d="M52.044,26.18l-0.351-0.082l0.246-0.263c0.921-0.988,0.868-2.542-0.119-3.466l-0.802-0.748
		c-0.951-0.887-2.579-0.828-3.466,0.119l-2.439,2.614c-1.469-2.093-3.421-4.004-6.088-5.634c0.96-0.171,1.739-0.377,2.409-0.759
		h5.506c2.206,0,4-1.794,4-4s-1.794-4-4-4h-5.999c-0.721-0.343-1.583-0.515-2.763-0.528c-0.207-0.002-0.394-0.141-0.463-0.346
		c-0.162-0.471-0.347-0.932-0.554-1.377l0.921-0.921c1.56-1.56,1.56-4.097,0-5.656c-1.513-1.513-4.146-1.511-5.657,0l-1.079,1.079
		C29.332,1.62,27.21,1.94,25.318,3.128c-0.159,0.099-0.404,0.032-0.53-0.134c-0.481-0.643-1.063-1.363-1.875-1.776
		c-0.971-0.493-2.7-0.196-3.799,0.551c-0.793,0.54-0.809,1.708-0.589,3.297c0.036,0.261,0.099,0.524,0.169,0.788l2.221,1.588
		c3.674,2.433,5.096,5.581,3.972,8.846c-1.423,4.137-8.55,9.591-14.389,11.011l-1.612,0.431c-1.775,8.125,0.246,15.387,6.069,21.634
		c6.599,7.078,15.157,10.519,26.165,10.519c0.001,0,0.001,0,0.002,0c1.262,0,2.577-0.046,3.909-0.138
		c3.628-0.251,5.834-2.583,5.902-6.238c0.049-2.648-0.128-5.515-0.525-8.518c-0.158-1.196-0.293-2.404-0.428-3.614
		c-0.371-3.326-0.754-6.693-1.63-9.894l2.335,0.543c0.183,0.043,0.37,0.064,0.557,0.064c1.146,0,2.127-0.78,2.386-1.896l0.249-1.068
		C54.183,27.808,53.362,26.487,52.044,26.18z M39.941,11.962h3.556c-0.344,0.591-0.556,1.268-0.556,2s0.212,1.409,0.556,2h-3.556
		c-1.103,0-2-0.897-2-2S38.838,11.962,39.941,11.962z M44.495,45.794l-2.555,1.703v2.465c0,0.553-0.447,1-1,1s-1-0.447-1-1v-2.393
		c-1.856-0.98-3.522-2.022-5-3.121v3.513c0,0.553-0.447,1-1,1s-1-0.447-1-1v-5.137c-2.656-2.366-4.502-4.973-5.535-7.801
		c-3.309,3.315-3.268,8.966,0.135,12.938h2.4c0.553,0,1,0.447,1,1s-0.447,1-1,1h-1.989l-0.011,2.006c-0.003,0.55-0.45,0.994-1,0.994
		c-0.002,0-0.004,0-0.006,0c-0.552-0.003-0.997-0.453-0.994-1.006l0.016-2.756c-4.156-4.918-3.995-12.012,0.43-15.982
		c0.127-0.115,0.278-0.177,0.433-0.214c-1.523-6.898,2.136-12.372,2.296-12.607c0.312-0.455,0.934-0.571,1.388-0.26
		c0.456,0.311,0.573,0.933,0.264,1.389c-0.021,0.031-1.294,1.955-1.946,4.845c2.053-0.83,4.349-0.626,6.735,0.654
		c1.018,0.546,2.044,1.295,3.045,2.193l2.74-2.055c0.44-0.331,1.068-0.243,1.399,0.2c0.332,0.441,0.242,1.068-0.2,1.399
		l-2.499,1.874c0.772,0.835,1.518,1.755,2.215,2.754c0.315,0.453,0.205,1.076-0.248,1.393c-0.175,0.121-0.374,0.18-0.571,0.18
		c-0.316,0-0.627-0.149-0.821-0.428c-0.534-0.765-1.097-1.474-1.675-2.132v2.56c0,0.553-0.447,1-1,1s-1-0.447-1-1v-4
		c0-0.16,0.04-0.314,0.111-0.453c-0.809-0.703-1.63-1.287-2.44-1.721c-2.292-1.229-4.342-1.232-6.099-0.005
		c-0.012,0.008-0.026,0.009-0.039,0.017c-0.079,1.31,0.009,2.73,0.388,4.212c0.738,2.882,2.418,5.543,5.016,7.964
		c0.022-0.001,0.04-0.012,0.062-0.012h6c0.553,0,1,0.447,1,1s-0.447,1-1,1h-3.641c1.355,0.993,2.884,1.939,4.584,2.837l2.503-1.669
		c0.461-0.306,1.081-0.183,1.387,0.277C45.079,44.867,44.955,45.487,44.495,45.794z"/>
	<path d="M11.473,13.939c-0.073,3.128-0.148,6.363-1.19,9.102c-0.316,0.831-0.582,1.65-0.824,2.465l0.544-0.146
		c5.582-1.358,11.907-6.566,12.993-9.724c1.023-2.975-1.184-5.203-3.215-6.548l-0.68-0.486c-0.553,0.396-1.758,0.767-2.795,0.713
		c-0.234-0.015-0.466-0.021-0.662-0.02l-4.742-4.742C9.975,3.627,8.358,3.629,7.435,4.553L6.658,5.329
		c-0.956,0.956-0.956,2.511,0,3.467l4.828,4.827C11.481,13.726,11.476,13.83,11.473,13.939z"/>
</g>
<g>
</g>
<g>
</g>
<g>
</g>
<g>
</g>
<g>
</g>
<g>
</g>
<g>
</g>
<g>
</g>
<g>
</g>
<g>
</g>
<g>
</g>
<g>
</g>
<g>
</g>
<g>
</g>
<g>
</g>
</svg>
