<?xml version="1.0" encoding="iso-8859-1"?>
<!-- Generator: Adobe Illustrator 18.0.0, SVG Export Plug-In . SVG Version: 6.00 Build 0)  -->
<!DOCTYPE svg PUBLIC "-//W3C//DTD SVG 1.1//EN" "http://www.w3.org/Graphics/SVG/1.1/DTD/svg11.dtd">
<svg version="1.1" id="Capa_1" xmlns="http://www.w3.org/2000/svg" xmlns:xlink="http://www.w3.org/1999/xlink" x="0px" y="0px"
	 viewBox="0 0 456.086 456.086" style="enable-background:new 0 0 456.086 456.086;" xml:space="preserve">
<g id="XMLID_28_">
	<path id="XMLID_35_" d="M102.226,173.962l-28.334,30.064l40.786,30.018c2.524,1.862,4.628,4.061,6.515,6.398
		c0.125-0.008,0.233-0.04,0.344-0.04c0.232,0,0.451,0.07,0.7,0.07c1.964-2.431,4.146-4.715,6.796-6.631l41.608-29.9l-28.736-30.001
		c-6.264,2.182-12.872,3.608-19.87,3.608C115.068,177.548,108.46,176.129,102.226,173.962z"/>
	<path id="XMLID_34_" d="M62.328,284.687L41.881,269.64l-7.887,39.157c-1.776,8.821,0.5,17.971,6.203,24.937
		c5.704,6.958,14.214,10.994,23.223,10.994h12.795c-10.349-11.105-16.817-25.871-16.817-42.204
		C59.398,296.283,60.598,290.376,62.328,284.687z"/>
	<path id="XMLID_33_" d="M244.814,210.735c0.53-5.733-1.465-11.431-5.438-15.6l-59.023-61.817
		c-3.911,13.566-12.202,25.263-23.501,33.172l37.855,39.642l-52.692,38.02c13.513,4.761,24.826,13.932,32.245,25.941l62.356-45.002
		C241.293,221.715,244.285,216.479,244.814,210.735z"/>
	<path id="XMLID_32_" d="M128.783,257.093c1.527,9.228-0.483,19.022-6.468,27.149c-7.044,9.569-17.922,14.627-28.958,14.627
		c-5.875,0-11.767-1.503-17.174-4.474c-0.483,2.649-0.826,5.347-0.826,8.128c0,25.49,20.682,46.156,46.18,46.156
		c25.496,0,46.147-20.666,46.147-46.156C167.683,279.496,150.806,260.585,128.783,257.093z"/>
	<path id="XMLID_31_" d="M93.373,282.911c6.126,0,12.173-2.814,16.084-8.128c6.53-8.867,4.63-21.36-4.238-27.889l-55.296-40.692
		l37.357-39.649c-11.331-7.901-19.638-19.605-23.565-33.189L5.428,195.229c-3.912,4.161-5.86,9.795-5.347,15.484
		c0.515,5.688,3.444,10.877,8.042,14.268l73.438,54.048C85.129,281.648,89.26,282.911,93.373,282.911z"/>
	<path id="XMLID_30_" d="M122.035,161.589c24.857,0,44.979-20.138,44.979-44.979c0-24.858-20.121-44.987-44.979-44.987
		c-24.858,0-44.994,20.129-44.994,44.987C77.041,141.452,97.177,161.589,122.035,161.589z"/>
	<path id="XMLID_29_" d="M430.635,333.562h-78.05l-59.831-26.081l53.886,10.808h83.995c7.7,0,14.821,2.26,20.963,5.977
		c0.64-2.595,1.06-5.26,1.075-8.042c0.108-19.286-15.445-35.011-34.739-35.121l-191.541-1.052
		c-19.746-0.7-35.004,15.445-35.113,34.732c-0.108,19.286,15.445,35.011,34.738,35.121l37.141,0.202l9.258,4.045l64.678,28.193
		c3.211,1.402,6.671,2.119,10.177,2.119h83.364c14.059,0,25.451-11.394,25.451-25.45
		C456.086,344.954,444.693,333.562,430.635,333.562z"/>
</g>
<g>
</g>
<g>
</g>
<g>
</g>
<g>
</g>
<g>
</g>
<g>
</g>
<g>
</g>
<g>
</g>
<g>
</g>
<g>
</g>
<g>
</g>
<g>
</g>
<g>
</g>
<g>
</g>
<g>
</g>
</svg>
