<?xml version="1.0" encoding="iso-8859-1"?>
<!-- Generator: Adobe Illustrator 19.0.0, SVG Export Plug-In . SVG Version: 6.00 Build 0)  -->
<svg version="1.1" id="Capa_1" xmlns="http://www.w3.org/2000/svg" xmlns:xlink="http://www.w3.org/1999/xlink" x="0px" y="0px"
	 viewBox="0 0 512 512" style="enable-background:new 0 0 512 512;" xml:space="preserve">
<g>
	<g>
		<path d="M333.763,392H177.237c-4.532,12.708-14.529,22.705-27.237,27.237V512h211v-92.763
			C348.292,414.705,338.295,404.708,333.763,392z"/>
	</g>
</g>
<g>
	<g>
		<path d="M361,362v15c0,8.276,6.724,15,15,15s15-6.724,15-15v-15H361z"/>
	</g>
</g>
<g>
	<g>
		<path d="M120,362v15c0,8.276,6.724,15,15,15s15-6.724,15-15v-15H120z"/>
	</g>
</g>
<g>
	<g>
		<path d="M467,392h-48.763c-4.532,12.708-14.529,22.705-27.237,27.237V512h45c41.353,0,76-33.647,76-75v-60.383
			C499.426,386.135,483.948,392,467,392z"/>
	</g>
</g>
<g>
	<g>
		<path d="M436,151H75c-41.353,0-75,33.647-75,75v91c0,24.814,20.186,45,45,45h45v-15c0-8.291,6.709-15,15-15h60
			c8.291,0,15,6.709,15,15v15h151v-15c0-8.291,6.709-15,15-15h60c8.291,0,15,6.709,15,15v15h46c24.814,0,45-20.186,45-45v-91
			C512,184.647,477.353,151,436,151z M316,272h-45v45c0,8.291-6.709,15-15,15c-8.291,0-15-6.709-15-15v-45h-46
			c-8.291,0-15-6.709-15-15c0-8.291,6.709-15,15-15h46v-46c0-8.291,6.709-15,15-15s15,6.709,15,15v46h45c8.291,0,15,6.709,15,15
			S324.291,272,316,272z"/>
	</g>
</g>
<g>
	<g>
		<path d="M92.763,392H45c-16.948,0-32.426-5.865-45-15.383V437c0,41.353,33.647,75,75,75h45v-92.763
			C107.292,414.705,97.295,404.708,92.763,392z"/>
	</g>
</g>
<g>
	<g>
		<path d="M256,0c-57.891,0-105,47.109-105,105v16h60v-16c0-24.814,20.186-45,45-45c24.814,0,45,20.186,45,45v16h60v-16
			C361,47.109,313.891,0,256,0z"/>
	</g>
</g>
<g>
</g>
<g>
</g>
<g>
</g>
<g>
</g>
<g>
</g>
<g>
</g>
<g>
</g>
<g>
</g>
<g>
</g>
<g>
</g>
<g>
</g>
<g>
</g>
<g>
</g>
<g>
</g>
<g>
</g>
</svg>
