<?xml version="1.0" encoding="iso-8859-1"?>
<!-- Generator: Adobe Illustrator 19.0.0, SVG Export Plug-In . SVG Version: 6.00 Build 0)  -->
<svg version="1.1" id="Layer_1" xmlns="http://www.w3.org/2000/svg" xmlns:xlink="http://www.w3.org/1999/xlink" x="0px" y="0px"
	 viewBox="0 0 460.346 460.346" style="enable-background:new 0 0 460.346 460.346;" xml:space="preserve">
<g>
	<g>
		<g>
			<circle cx="126.279" cy="141.445" r="34.722"/>
			<path d="M426.638,57.742H415.17V34.348c0-5.499-4.457-9.956-9.956-9.956h-41.738V12.445C363.476,5.571,357.904,0,351.031,0
				s-12.445,5.571-12.445,12.445v11.947h-41.739c-5.499,0-9.956,4.457-9.956,9.956v23.394H275.62c-3.959,0-7.169,3.21-7.169,7.169
				v59.748c0,2.358,1.159,4.564,3.1,5.902l17.418,12.007l0.412,62.399l0.008,0.29c0.036,0.798,3.074,79.908-40.098,87.211
				c-12.745,2.156-30.464,1.305-42.061-7.517c-0.035-0.026-0.072-0.048-0.106-0.075c-4.499-3.452-7.919-8-10.247-13.587
				l37.613-9.203c8.439-2.065,13.606-10.581,11.541-19.02c-2.065-8.439-10.578-13.607-19.02-11.542l-52.857,12.934l-37.521-34.557
				l29.295,15.459l0.049-8.26c0.077-12.954-10.362-23.518-23.316-23.595l-41.828-0.249c-12.954-0.077-23.518,10.362-23.595,23.316
				c-0.741,124.679-0.563,107.697-0.829,111.175c-0.443,5.787,1.777,11.158,5.621,14.925H56.407v-165.51
				c0-8.248-6.686-14.934-14.934-14.934c-8.248,0-14.934,6.686-14.934,14.934c0,14.949,0,253.413,0,268.249
				c0,8.248,6.686,14.934,14.934,14.934c8.247,0,14.934-6.686,14.934-14.934v-24.556h78.059v24.556
				c0,8.248,6.686,14.934,14.934,14.934s14.934-6.686,14.934-14.934c0-95.695,0.261-89.073-0.621-92.051l17.968,1.375l-13.43,83.74
				c-1.651,10.295,5.356,19.978,15.65,21.629c10.293,1.65,19.978-5.356,21.629-15.65l16.678-103.987
				c1.747-10.892-6.193-20.97-17.199-21.812l-39.616-3.031l0.126-21.172c-6.959-0.117-13.413-3.758-17.13-9.566l-33.067-51.841
				l43.724,40.27c3.909,3.6,9.327,4.951,14.397,3.709l8.785-2.149c3.157,8.642,8.322,16.107,15.808,21.851
				c14.744,11.312,36.067,13.458,53.748,10.468c55.549-9.397,52.768-96.889,52.532-102.464l-0.411-62.248l17.29-11.919
				c1.941-1.338,3.1-3.545,3.1-5.902V64.91c0-3.959-3.21-7.169-7.169-7.169h-10.32V44.303h31.783v391.153H310.71
				c-6.873,0-12.445,5.572-12.445,12.445s5.572,12.445,12.445,12.445h80.642c6.873,0,12.445-5.572,12.445-12.445
				c0-6.873-5.572-12.445-12.445-12.445h-27.876V44.303h31.782v13.438h-10.124c-3.959,0-7.169,3.21-7.169,7.169v59.748
				c0,2.358,1.159,4.564,3.1,5.902l20.752,14.306c2.45,1.689,5.688,1.689,8.138,0l20.752-14.306c1.941-1.338,3.1-3.545,3.1-5.902
				V64.91C433.807,60.951,430.597,57.742,426.638,57.742z M134.466,372.54v28.404H56.407V372.54H134.466z"/>
		</g>
	</g>
</g>
<g>
</g>
<g>
</g>
<g>
</g>
<g>
</g>
<g>
</g>
<g>
</g>
<g>
</g>
<g>
</g>
<g>
</g>
<g>
</g>
<g>
</g>
<g>
</g>
<g>
</g>
<g>
</g>
<g>
</g>
</svg>
